<svg width="1055" height="599" xmlns="http://www.w3.org/2000/svg">
  <path stroke="#67ADC4" fill="#fff" stroke-width="0.5em" d="m1046.999997,414.816094c0,-83.372656 -57.563594,-153.257812 -135.074062,-172.128125c-3.292656,-130.710937 -110.152656,-235.687968 -241.578593,-235.687968c-76.97625,0 -145.504531,36.048594 -189.773593,92.149687c-24.823906,-32.091719 -63.669531,-52.771875 -107.359687,-52.771875c-74.963281,0 -135.730156,60.809531 -135.730156,135.811406c0,6.536562 0.4875,12.959375 1.385312,19.250156c-11.397344,-2.055625 -23.121719,-3.187031 -35.110156,-3.187031c-108.669843,-0.002031 -196.759062,88.142031 -196.759062,196.870781c0,108.734843 88.089219,196.876875 196.757031,196.876875l666.516092,-0.012187c97.640156,-0.186875 176.726875,-79.434062 176.726875,-177.171718z" id="svg_1"/>
</svg>
